<svg width="28" height="24" viewBox="0 0 28 24" fill="none" xmlns="http://www.w3.org/2000/svg">
<path d="M1.49579 7.36976C1.61766 7.41656 1.74291 7.43869 1.8661 7.43869C2.28177 7.43869 2.67379 7.18619 2.83165 6.77493C2.94725 6.47376 3.6439 5.82792 4.62055 5.61305C5.05015 5.51847 5.44293 5.52619 5.79683 5.63352C5.42239 5.9682 5.09668 6.36181 4.85038 6.78747C4.26354 7.80135 4.14718 8.91118 4.5137 9.99689C4.67673 10.4798 5.16168 10.7632 5.6487 10.6886C5.70729 10.6797 5.76602 10.6654 5.82413 10.6458C6.36519 10.4632 6.65568 9.87646 6.47307 9.3354C6.23077 8.61766 6.66816 8.00519 6.99649 7.34852C7.03709 7.26739 7.09665 7.1817 7.16979 7.09416C9.15997 8.31649 10.6591 10.2027 11.4292 12.3741C12.1287 12.2882 12.8399 12.2376 13.5582 12.223C13.245 11.1808 12.7944 10.18 12.2137 9.25364C11.3748 7.9153 10.2797 6.75211 9.0026 5.83205C9.36629 5.71066 9.67284 5.65158 9.9789 5.61801C10.3161 5.58106 10.6443 5.74361 10.9223 5.93738C11.3908 6.26399 12.0353 6.14908 12.3619 5.6806C12.6885 5.2122 12.5735 4.5676 12.105 4.24099C11.165 3.58557 10.0667 3.38753 8.92946 3.66733C8.8435 3.68849 8.75802 3.71317 8.67282 3.73964C8.71376 3.68573 8.75643 3.6321 8.8029 3.57909C9.46163 2.82682 10.3624 2.52709 10.6827 2.57101C11.2482 2.64876 11.7699 2.2526 11.8474 1.68686C11.9249 1.12105 11.529 0.59964 10.9632 0.522159C9.80816 0.363404 8.24522 1.0768 7.24699 2.21689C6.85793 2.66131 6.56993 3.14433 6.38587 3.65044C5.70053 3.44522 4.95171 3.42275 4.17614 3.5935C2.69613 3.91921 1.31876 4.94556 0.900958 6.03403C0.696362 6.56702 0.962653 7.16509 1.49579 7.36976Z" fill="#0055C7"/>
<path d="M0.991974 21.4951C1.17685 21.5622 1.3414 21.6101 1.46658 21.6237C1.63209 21.5681 1.96801 21.3963 2.19762 21.2788C3.04709 20.8442 4.21035 20.249 5.68725 20.249C7.16409 20.249 8.32741 20.8442 9.17681 21.2788C9.37858 21.382 9.66231 21.5272 9.84051 21.5987C10.0187 21.5272 10.3025 21.382 10.5043 21.2788C11.3537 20.8442 12.5169 20.249 13.9938 20.249C15.4705 20.249 16.6339 20.8442 17.4832 21.2787C17.6851 21.3821 17.9689 21.5272 18.1471 21.5987C18.3253 21.5273 18.609 21.3821 18.8108 21.2789C19.6604 20.8442 20.8236 20.2491 22.3003 20.2491C23.7771 20.2491 24.9404 20.8442 25.7898 21.2788C26.0196 21.3964 26.3555 21.5683 26.521 21.6238C26.6461 21.6102 26.8107 21.5623 26.9956 21.4953C26.4104 19.7686 25.1462 18.196 23.2942 16.9337C20.7892 15.2264 17.4863 14.2862 13.9938 14.2862C10.5012 14.2862 7.19821 15.2264 4.6933 16.9337C2.84133 18.1959 1.57701 19.7685 0.991974 21.4951Z" fill="#0055C7"/>
<path d="M15.8171 9.20727C15.2222 10.147 14.7618 11.1637 14.4433 12.2233C15.1613 12.2383 15.872 12.2894 16.5711 12.3756C17.3402 10.2029 18.8387 8.31913 20.8309 7.09521C21.0287 7.25693 21.1669 7.38128 21.2102 7.42416C21.5675 7.77834 21.8259 8.24171 21.8491 8.75189C21.8568 8.92043 21.8391 9.0896 21.7996 9.25352C21.666 9.80878 22.0079 10.3671 22.5631 10.5007C22.6228 10.515 22.6825 10.5239 22.7417 10.5276C23.2334 10.5584 23.6911 10.2327 23.8103 9.73716C24.0783 8.62298 23.8631 7.52804 23.188 6.57069C22.937 6.21465 22.6259 5.88942 22.2782 5.61141C22.6123 5.52483 22.98 5.52497 23.3792 5.61286C24.356 5.82779 25.0525 6.47356 25.1681 6.77467C25.326 7.18606 25.7179 7.4385 26.1337 7.4385C26.2568 7.4385 26.3821 7.41637 26.5039 7.36956C27.0371 7.16497 27.3035 6.56683 27.0988 6.03377C26.6811 4.94524 25.3037 3.91881 23.8236 3.59317C23.0481 3.42242 22.2993 3.44489 21.6139 3.65011C21.4299 3.14407 21.1419 2.66105 20.7528 2.21663C19.7546 1.07647 18.1916 0.363904 17.0366 0.521831C16.4708 0.599313 16.075 1.12073 16.1524 1.68653C16.2299 2.25227 16.7513 2.6485 17.3171 2.57068C17.6357 2.5267 18.538 2.82628 19.1969 3.57883C19.2915 3.68699 19.3743 3.79701 19.4462 3.90868C19.2113 3.83278 18.972 3.77481 18.7323 3.73814C17.5741 3.56125 16.4983 3.85677 15.6207 4.59347C15.1833 4.96068 15.1264 5.61286 15.4936 6.05024C15.8609 6.48763 16.5131 6.54457 16.9504 6.17729C17.3866 5.81104 17.9605 5.73404 18.5179 5.80401C18.6407 5.81945 18.7712 5.85309 18.9061 5.90017C17.6838 6.79866 16.6319 7.92028 15.8171 9.20727Z" fill="#0055C7"/>
</svg>
