<svg width="21" height="24" viewBox="0 0 21 24" fill="none" xmlns="http://www.w3.org/2000/svg">
<path fill-rule="evenodd" clip-rule="evenodd" d="M1.5 3C1.5 2.20435 1.81607 1.44129 2.37868 0.87868C2.94129 0.31607 3.70435 0 4.5 0H16.5C17.2956 0 18.0587 0.31607 18.6213 0.87868C19.1839 1.44129 19.5 2.20435 19.5 3V21C19.8978 21 20.2794 21.158 20.5607 21.4393C20.842 21.7206 21 22.1022 21 22.5C21 22.8978 20.842 23.2794 20.5607 23.5607C20.2794 23.842 19.8978 24 19.5 24H15C14.6022 24 14.2206 23.842 13.9393 23.5607C13.658 23.2794 13.5 22.8978 13.5 22.5V19.5C13.5 19.1022 13.342 18.7206 13.0607 18.4393C12.7794 18.158 12.3978 18 12 18H9C8.60218 18 8.22064 18.158 7.93934 18.4393C7.65804 18.7206 7.5 19.1022 7.5 19.5V22.5C7.5 22.8978 7.34196 23.2794 7.06066 23.5607C6.77936 23.842 6.39782 24 6 24H1.5C1.10218 24 0.720644 23.842 0.43934 23.5607C0.158035 23.2794 0 22.8978 0 22.5C0 22.1022 0.158035 21.7206 0.43934 21.4393C0.720644 21.158 1.10218 21 1.5 21V3ZM6 4.5H9V7.5H6V4.5ZM9 10.5H6V13.5H9V10.5ZM12 4.5H15V7.5H12V4.5ZM15 10.5H12V13.5H15V10.5Z" fill="#0055C7"/>
</svg>
