<svg width="24" height="24" viewBox="0 0 24 24" fill="none" xmlns="http://www.w3.org/2000/svg">
<rect x="1" y="20.5714" width="21.7143" height="3.42857" rx="1" fill="#0055C7"/>
<rect x="10.1428" y="10.2857" width="3.42857" height="8" rx="1" fill="#0055C7"/>
<rect x="17" y="10.2857" width="3.42857" height="8" rx="1" fill="#0055C7"/>
<rect x="3.28564" y="10.2857" width="3.42857" height="8" rx="1" fill="#0055C7"/>
<path d="M1 6.31802V7C1 7.55229 1.44772 8 2 8H21.7143C22.2666 8 22.7143 7.55228 22.7143 7V6.31802C22.7143 5.94674 22.5086 5.60602 22.18 5.4331L12.3229 0.24513C12.0313 0.0916874 11.6829 0.091687 11.3914 0.245129L1.53425 5.4331C1.2057 5.60602 1 5.94674 1 6.31802Z" fill="#0055C7"/>
</svg>
