<svg width="24" height="24" viewBox="0 0 24 24" fill="none" xmlns="http://www.w3.org/2000/svg">
<g clip-path="url(#clip0)">
<path d="M23.3757 20.4059L13.9649 10.995L2.96987 0H2.1106L1.93515 0.445828C1.47207 1.62258 1.27421 2.82614 1.36304 3.92625C1.46429 5.18025 1.94068 6.26592 2.74079 7.06603L11.3241 15.6493L12.4562 14.5172L20.3914 23.3903C21.1808 24.1797 22.5395 24.2265 23.3757 23.3903C24.1986 22.5675 24.1986 21.2287 23.3757 20.4059Z" fill="#0055C7"/>
<path d="M7.34662 13.6613L0.624234 20.3837C-0.198516 21.2065 -0.198516 22.5453 0.624234 23.368C1.40583 24.1496 2.75794 24.2186 3.60853 23.368L10.331 16.6456L7.34662 13.6613Z" fill="#0055C7"/>
<path d="M22.9806 3.99605L19.1673 7.80933L18.1725 6.81455L21.9858 3.00122L20.991 2.00644L17.1777 5.81972L16.1829 4.82494L19.9963 1.01165L19.0015 0.0169201L14.0276 4.99083C13.4191 5.59931 13.0558 6.40725 13.0044 7.26591C12.9915 7.48345 12.9421 7.69744 12.8604 7.90097L16.0914 11.132C16.2949 11.0501 16.509 11.0009 16.7265 10.9879C17.5851 10.9366 18.3931 10.5732 19.0015 9.96473L23.9755 4.99087L22.9806 3.99605Z" fill="#0055C7"/>
</g>
<defs>
<clipPath id="clip0">
<rect width="24" height="24" fill="white"/>
</clipPath>
</defs>
</svg>
