<svg width="24" height="22" viewBox="0 0 24 22" fill="none" xmlns="http://www.w3.org/2000/svg">
<path d="M22.6667 3.98361H17.3333V1.32787C17.3333 0.593391 16.7375 0 16 0H8C7.2625 0 6.66667 0.593391 6.66667 1.32787V3.98361H1.33333C0.595833 3.98361 0 4.577 0 5.31148V20.582C0 20.9471 0.3 21.2459 0.666667 21.2459H23.3333C23.7 21.2459 24 20.9471 24 20.582V5.31148C24 4.577 23.4042 3.98361 22.6667 3.98361ZM6.66667 18.0922C6.66667 18.3661 6.44167 18.5902 6.16667 18.5902H4.5C4.225 18.5902 4 18.3661 4 18.0922V16.4324C4 16.1585 4.225 15.9344 4.5 15.9344H6.16667C6.44167 15.9344 6.66667 16.1585 6.66667 16.4324V18.0922ZM6.66667 12.7807C6.66667 13.0546 6.44167 13.2787 6.16667 13.2787H4.5C4.225 13.2787 4 13.0546 4 12.7807V11.1209C4 10.847 4.225 10.623 4.5 10.623H6.16667C6.44167 10.623 6.66667 10.847 6.66667 11.1209V12.7807ZM13.3333 18.0922C13.3333 18.3661 13.1083 18.5902 12.8333 18.5902H11.1667C10.8917 18.5902 10.6667 18.3661 10.6667 18.0922V16.4324C10.6667 16.1585 10.8917 15.9344 11.1667 15.9344H12.8333C13.1083 15.9344 13.3333 16.1585 13.3333 16.4324V18.0922ZM13.3333 12.7807C13.3333 13.0546 13.1083 13.2787 12.8333 13.2787H11.1667C10.8917 13.2787 10.6667 13.0546 10.6667 12.7807V11.1209C10.6667 10.847 10.8917 10.623 11.1667 10.623H12.8333C13.1083 10.623 13.3333 10.847 13.3333 11.1209V12.7807ZM14 5.72643C14 5.86337 13.8875 5.97541 13.75 5.97541H12.6667V7.0543C12.6667 7.19124 12.5542 7.30328 12.4167 7.30328H11.5833C11.4458 7.30328 11.3333 7.19124 11.3333 7.0543V5.97541H10.25C10.1125 5.97541 10 5.86337 10 5.72643V4.89652C10 4.75958 10.1125 4.64754 10.25 4.64754H11.3333V3.56865C11.3333 3.43171 11.4458 3.31967 11.5833 3.31967H12.4167C12.5542 3.31967 12.6667 3.43171 12.6667 3.56865V4.64754H13.75C13.8875 4.64754 14 4.75958 14 4.89652V5.72643ZM20 18.0922C20 18.3661 19.775 18.5902 19.5 18.5902H17.8333C17.5583 18.5902 17.3333 18.3661 17.3333 18.0922V16.4324C17.3333 16.1585 17.5583 15.9344 17.8333 15.9344H19.5C19.775 15.9344 20 16.1585 20 16.4324V18.0922ZM20 12.7807C20 13.0546 19.775 13.2787 19.5 13.2787H17.8333C17.5583 13.2787 17.3333 13.0546 17.3333 12.7807V11.1209C17.3333 10.847 17.5583 10.623 17.8333 10.623H19.5C19.775 10.623 20 10.847 20 11.1209V12.7807Z" fill="#0055C7"/>
</svg>
