<svg width="24" height="22" viewBox="0 0 24 22" fill="none" xmlns="http://www.w3.org/2000/svg">
<path d="M23.3333 2.63636C23.7017 2.63636 24 2.34142 24 1.97727V0.659091C24 0.294943 23.7017 0 23.3333 0H0.666667C0.298333 0 0 0.294943 0 0.659091V1.97727C0 2.34142 0.298333 2.63636 0.666667 2.63636H1.3325V18.4545H0.666667C0.298333 18.4545 0 18.7495 0 19.1136V20.4318C0 20.796 0.298333 21.0909 0.666667 21.0909H10.6667V17.7955C10.6667 17.433 10.9667 17.1364 11.3333 17.1364H12.6667C13.0333 17.1364 13.3333 17.433 13.3333 17.7955V21.0909H23.3333C23.7017 21.0909 24 20.796 24 20.4318V19.1136C24 18.7495 23.7017 18.4545 23.3333 18.4545H22.6667V2.63636H23.3333ZM10.6667 4.48182C10.6667 4.21818 10.9333 3.95455 11.2 3.95455H12.8C13.0667 3.95455 13.3333 4.21818 13.3333 4.48182V6.06364C13.3333 6.32727 13.0667 6.59091 12.8 6.59091H11.2C10.9333 6.59091 10.6667 6.32727 10.6667 6.06364V4.48182ZM10.6667 8.43636C10.6667 8.17273 10.9333 7.90909 11.2 7.90909H12.8C13.0667 7.90909 13.3333 8.17273 13.3333 8.43636V10.0182C13.3333 10.2818 13.0667 10.5455 12.8 10.5455H11.2C10.9333 10.5455 10.6667 10.2818 10.6667 10.0182V8.43636ZM5.33333 4.48182C5.33333 4.21818 5.6 3.95455 5.86667 3.95455H7.46667C7.73333 3.95455 8 4.21818 8 4.48182V6.06364C8 6.32727 7.73333 6.59091 7.46667 6.59091H5.86667C5.6 6.59091 5.33333 6.32727 5.33333 6.06364V4.48182ZM7.46667 10.5455H5.86667C5.6 10.5455 5.33333 10.2818 5.33333 10.0182V8.43636C5.33333 8.17273 5.6 7.90909 5.86667 7.90909H7.46667C7.73333 7.90909 8 8.17273 8 8.43636V10.0182C8 10.2818 7.73333 10.5455 7.46667 10.5455ZM8 15.8182C8 13.6341 9.79083 11.8636 12 11.8636C14.2092 11.8636 16 13.6341 16 15.8182H8ZM18.6667 10.0182C18.6667 10.2818 18.4 10.5455 18.1333 10.5455H16.5333C16.2667 10.5455 16 10.2818 16 10.0182V8.43636C16 8.17273 16.2667 7.90909 16.5333 7.90909H18.1333C18.4 7.90909 18.6667 8.17273 18.6667 8.43636V10.0182ZM18.6667 6.06364C18.6667 6.32727 18.4 6.59091 18.1333 6.59091H16.5333C16.2667 6.59091 16 6.32727 16 6.06364V4.48182C16 4.21818 16.2667 3.95455 16.5333 3.95455H18.1333C18.4 3.95455 18.6667 4.21818 18.6667 4.48182V6.06364Z" fill="#0055C7"/>
</svg>
