<svg width="25" height="24" viewBox="0 0 25 24" fill="none" xmlns="http://www.w3.org/2000/svg">
<path d="M5.69785 22.5788L7.75467 18.5971L9.61862 19.4166L7.84683 22.7862L5.69785 22.5788Z" fill="#0055C7"/>
<path d="M17.291 22.9656L15.3738 19.3195L17.4182 18.8475L19.4528 22.7862L17.291 22.9656Z" fill="#0055C7"/>
<path d="M13.2801 3.02053H12.5239L13.2801 3.02005V3.02053Z" fill="#0055C7"/>
<path d="M13.2801 9.35892V3.02029L11.7677 3.02034V9.35674L13.2801 9.35892Z" fill="#0055C7"/>
<path d="M13.754 9.50473L19.7523 7.77058L20.0122 9.20929L13.5816 11.0684L13.754 9.50473Z" fill="#0055C7"/>
<path d="M5.49879 7.84391L11.2132 9.48139L11.0548 10.9495L4.97983 9.20775L5.49879 7.84391Z" fill="#0055C7"/>
<path d="M6.56052 16.2941L10.9315 11.3074L12.2244 12.0857L8.25149 16.6182L6.56052 16.2941Z" fill="#0055C7"/>
<path d="M16.7578 16.6182L12.6394 11.8822L13.8365 10.9948L18.5766 16.4459L16.7578 16.6182Z" fill="#0055C7"/>
<path d="M12.5218 20.2968C6.95396 20.2968 2.42419 15.9539 2.42419 10.6157C2.42419 5.27757 6.95396 0.934616 12.5218 0.934616C18.0896 0.934616 22.6194 5.27757 22.6194 10.6157C22.6194 15.9539 18.0896 20.2968 12.5218 20.2968ZM12.5218 2.38401C7.7879 2.38401 3.9366 6.07677 3.9366 10.6157C3.9366 15.1547 7.7879 18.8475 12.5218 18.8475C17.2557 18.8475 21.107 15.1547 21.107 10.6157C21.107 6.07677 17.2557 2.38401 12.5218 2.38401Z" fill="#0055C7"/>
<path d="M13.2895 12.3766C14.3057 11.9729 14.788 10.8562 14.3668 9.88232C13.9456 8.90846 12.7803 8.44623 11.7641 8.8499C10.7479 9.25357 10.2656 10.3703 10.6868 11.3441C11.108 12.318 12.2733 12.7802 13.2895 12.3766Z" fill="#0055C7"/>
<path d="M5.0123 22.309H19.7331C20.29 22.309 20.7414 22.7416 20.7414 23.2753V23.5169C20.7414 23.7837 20.5157 24 20.2372 24H4.50816C4.22973 24 4.00403 23.7837 4.00403 23.5169V23.2753C4.00403 22.7416 4.45543 22.309 5.0123 22.309Z" fill="#0055C7"/>
<path d="M13.2801 3.02005V4.55689C13.2272 4.55979 13.1738 4.56124 13.1198 4.56124H11.924C11.8716 4.56124 11.8192 4.55979 11.7677 4.55737V3.02053L13.2801 3.02005Z" fill="#0055C7"/>
<path d="M20.0124 9.20944L18.6976 9.58966C18.387 9.20895 18.1788 8.74756 18.1143 8.24414L19.7522 7.77067L20.0124 9.20944Z" fill="#0055C7"/>
<path fill-rule="evenodd" clip-rule="evenodd" d="M20.9513 9.92022H21.9595C21.9511 9.92022 21.9426 9.92017 21.9341 9.92007H22.1465C23.3076 9.92007 24.2489 9.01802 24.2489 7.90532V6.56695C24.2488 6.30012 24.0231 6.08382 23.7447 6.08382H20.3484C20.3526 6.08372 20.3567 6.08368 20.3609 6.08368H19.3527C19.2993 6.08368 19.2479 6.09163 19.1996 6.10637C18.9958 6.16834 18.8481 6.35112 18.8481 6.56695V7.90532C18.8481 8.84753 19.5231 9.63869 20.4348 9.85903C20.6001 9.89899 20.7731 9.92022 20.9513 9.92022Z" fill="#0055C7"/>
<path fill-rule="evenodd" clip-rule="evenodd" d="M5.59775 19.7637H6.60602C6.59751 19.7637 6.58901 19.7637 6.58053 19.7636H6.79336C7.95443 19.7636 8.89571 18.8615 8.89571 17.7488V16.4104C8.89571 16.1436 8.67 15.9273 8.39157 15.9273H4.99494C4.99908 15.9272 5.00324 15.9272 5.0074 15.9272H3.99913C3.72085 15.9272 3.495 16.1436 3.495 16.4103V16.4104V17.7488V17.7491C3.495 18.8617 4.43622 19.7637 5.59775 19.7637Z" fill="#0055C7"/>
<path fill-rule="evenodd" clip-rule="evenodd" d="M18.2366 19.7637H19.2449C19.2364 19.7637 19.2279 19.7637 19.2194 19.7636H19.4462C20.6073 19.7636 21.5486 18.8615 21.5486 17.7488V16.4104C21.5486 16.1436 21.3228 15.9273 21.0444 15.9273H17.6338C17.6379 15.9272 17.6421 15.9272 17.6463 15.9272H16.638C16.3597 15.9272 16.1339 16.1436 16.1339 16.4103V17.7491C16.1339 18.8617 17.0751 19.7637 18.2366 19.7637Z" fill="#0055C7"/>
<path fill-rule="evenodd" clip-rule="evenodd" d="M11.924 3.83654H12.9323C12.9274 3.83654 12.9225 3.83652 12.9176 3.83649H13.1198C14.2809 3.83649 15.2222 2.93444 15.2222 1.82174V0.483372C15.2222 0.216539 14.9965 0.000240865 14.718 0.000240865H11.3176C11.3229 8.06871e-05 11.3283 0 11.3337 0H10.3254C10.0471 0 9.82126 0.216443 9.82126 0.483131V1.82189C9.82126 2.93454 10.7625 3.83654 11.924 3.83654Z" fill="#0055C7"/>
<path fill-rule="evenodd" clip-rule="evenodd" d="M2.89696 9.92013H3.90523C3.90031 9.92013 3.89538 9.92011 3.89047 9.92008H4.09307C5.25415 9.92008 6.19542 9.01802 6.19542 7.90532V6.56695C6.19542 6.30012 5.96972 6.08382 5.69128 6.08382H2.29109C2.29641 6.08366 2.30176 6.08358 2.30712 6.08358H1.29884C1.02056 6.08358 0.794708 6.30003 0.794708 6.56671V6.56695V7.90532V7.90547C0.794708 9.01812 1.73593 9.92013 2.89696 9.92013Z" fill="#0055C7"/>
</svg>
